<svg width="393" height="328" viewBox="0 0 393 328" fill="none" xmlns="http://www.w3.org/2000/svg">
<g opacity="0.1">
<mask id="mask0" mask-type="alpha" maskUnits="userSpaceOnUse" x="0" y="0" width="393" height="328">
<rect x="392.5" y="0.5" width="327" height="392" transform="rotate(90 392.5 0.5)" fill="url(#paint0_linear)" stroke="#6246E5"/>
</mask>
<g mask="url(#mask0)">
<path d="M149.506 431.019C80.2199 431.019 23.9663 368.675 23.9663 291.656C23.9663 214.638 80.2199 152.293 149.506 152.293C218.792 152.293 275.045 214.638 275.045 291.656C275.045 368.675 218.792 431.019 149.506 431.019Z" stroke="#6246E5"/>
<path d="M162.773 436.54C85.244 436.54 22.308 366.78 22.308 280.614C22.308 194.449 85.244 124.689 162.773 124.689C240.302 124.689 303.238 194.449 303.238 280.614C303.238 366.78 240.302 436.54 162.773 436.54Z" stroke="#6246E5"/>
<path d="M173.553 442.061C88.6963 442.061 19.8202 365.71 19.8202 271.413C19.8202 177.117 88.6963 100.765 173.553 100.765C258.409 100.765 327.285 177.117 327.285 271.413C327.285 365.71 258.409 442.061 173.553 442.061Z" stroke="#6246E5"/>
<path d="M189.308 445.742C98.0402 445.742 23.9667 363.623 23.9667 262.212C23.9667 160.801 98.0402 78.6816 189.308 78.6816C280.576 78.6816 354.649 160.801 354.649 262.212C354.649 363.623 280.576 445.742 189.308 445.742Z" stroke="#6246E5"/>
<path d="M204.648 449.423C107.198 449.423 28.1125 361.742 28.1125 253.47C28.1125 145.199 107.198 57.5181 204.648 57.5181C302.098 57.5181 381.184 145.199 381.184 253.47C381.184 361.742 302.098 449.423 204.648 449.423Z" stroke="#6246E5"/>
<path d="M222.062 454.024C114.994 454.024 28.1125 357.692 28.1125 238.748C28.1125 119.805 114.994 23.4726 222.062 23.4726C329.129 23.4727 416.01 119.805 416.01 238.748C416.01 357.692 329.129 454.024 222.062 454.024Z" stroke="#6246E5"/>
</g>
</g>
<defs>
<linearGradient id="paint0_linear" x1="625.63" y1="11.0261" x2="434.591" y2="412.777" gradientUnits="userSpaceOnUse">
<stop stop-color="#747DEF"/>
<stop offset="1" stop-color="#5E3BE1"/>
</linearGradient>
</defs>
</svg>
